<?xml version="1.0" encoding="utf-8"?>
<!-- Generator: Adobe Illustrator 23.0.0, SVG Export Plug-In . SVG Version: 6.00 Build 0)  -->
<svg version="1.1" id="Layer_1" xmlns="http://www.w3.org/2000/svg" xmlns:xlink="http://www.w3.org/1999/xlink" x="0px" y="0px"
	 viewBox="0 0 44.8 45" style="enable-background:new 0 0 44.8 45;" xml:space="preserve">
<style type="text/css">
	.st0{fill:#FFFFFF;}
</style>
<path class="st0" d="M15.9,10.6c0.2,0.2,0.5,0.3,0.6,0.1c3.7-2.7,8.3-3.7,12.8-3s8.6,3.3,11.2,7c2.7,3.7,3.7,8.3,3,12.8
	c-0.7,4.6-3.3,8.6-7,11.2c-3.7,2.7-8.3,3.7-12.8,3c-4.6-0.7-8.6-3.3-11.2-7c-3.6-5-4.2-11.6-1.7-17.1c0.1-0.2,0-0.5-0.3-0.6
	c-0.3-0.1-0.5,0-0.6,0.3c-2.6,5.9-2,12.8,1.8,18c2.8,3.9,7,6.6,11.8,7.4s9.7-0.3,13.6-3.2c3.9-2.8,6.6-7,7.4-11.8c0.2-1,0.3-2,0.3-3
	c0-3.7-1.2-7.5-3.4-10.6c-2.8-3.9-7-6.6-11.8-7.4S19.9,7.1,16,9.9C15.8,10.1,15.7,10.3,15.9,10.6z"/>
<path class="st0" d="M22.9,23.6c0-1.3-1.1-2.4-2.4-2.4s-2.4,1.1-2.4,2.4s1.1,2.4,2.4,2.4C21.9,26,22.9,24.9,22.9,23.6z"/>
<path class="st0" d="M35.1,23.6c0-1.3-1.1-2.4-2.4-2.4c-1.3,0-2.4,1.1-2.4,2.4s1.1,2.4,2.4,2.4C34,26,35.1,24.9,35.1,23.6z"/>
<path class="st0" d="M26.5,33.9c2.8-0.1,5.5-1.5,7.4-3.6l0,0c0.3-0.4,0.3-0.8-0.1-1.1s-0.8-0.3-1.1,0.1c-1.5,1.8-3.7,2.9-6.1,3.1
	c-2.3-0.1-4.5-1.2-5.9-2.9l0,0c-0.3-0.4-0.8-0.4-1.1-0.1l0,0c-0.4,0.3-0.4,0.8-0.1,1.1C21.2,32.6,23.8,33.7,26.5,33.9z"/>
<g>
	<path class="st0" d="M15.5,12.8c0.5,0,1,0.5,1,1s-0.5,1-1,1H14v1.5c0,0.5-0.5,1-1,1s-1-0.5-1-1v-1.5h-1.6c-0.3,0-0.5-0.1-0.7-0.3
		s-0.3-0.5-0.3-0.7s0.1-0.5,0.3-0.7s0.5-0.3,0.7-0.3H12v-1.5c0-0.5,0.5-1,1-1s1,0.5,1,1v1.5H15.5L15.5,12.8z"/>
	<path class="st0" d="M12.2,7.5h-1.6V9c0,0.5-0.5,1-1,1c-0.5,0-1-0.5-1-1V7.5H7c-0.5,0-1-0.5-1-1s0.5-1,1-1h1.6V3.8c0-0.5,0.5-1,1-1
		c0.5,0,1,0.5,1,1v1.5h1.6c0.5,0,1,0.5,1,1S12.7,7.5,12.2,7.5z"/>
	<path class="st0" d="M0.9,10.2h1.6V8.7c0-0.5,0.5-1,1-1s1,0.5,1,1v1.5h1.6c0.5,0,1,0.5,1,1c0,0.5-0.5,1-1,1H4.6v1.5
		c0,0.5-0.5,1-1,1s-1-0.5-1-1v-1.5H1c-0.5,0-1-0.5-1-1C-0.1,10.7,0.4,10.2,0.9,10.2z"/>
</g>
</svg>
